<svg width="214" height="231" viewBox="0 0 214 231" fill="none" xmlns="http://www.w3.org/2000/svg">
<path d="M214 120.5C214 181.527 164.527 231 103.5 231C42.4725 231 0 155.027 0 94C0 32.9725 42.4725 0 103.5 0C136.547 0 166.206 14.507 186.455 37.5C203.6 56.968 214 92.5195 214 120.5Z" fill="#FF97AA"/>
<path fill-rule="evenodd" clip-rule="evenodd" d="M100.359 110.924C102.773 107.537 102.503 103.969 100.83 97.5521C97.5201 84.8607 98.838 77.9044 110.248 69.6688L115.817 65.6492L117.164 72.3839C118.595 79.5412 120.946 83.968 126.982 92.483C127.222 92.8213 127.222 92.8213 127.463 93.161C136.157 105.427 139.333 112.822 139.333 126.25C139.333 142.54 122.865 157.167 103.999 157.167C85.1332 157.167 68.6661 142.542 68.6661 126.25C68.6661 125.946 68.6664 125.955 68.6148 124.609C68.2157 114.201 70.1404 106.054 77.9281 97.2584C79.5735 95.4 81.4439 93.6138 83.5486 91.9047L88.1949 88.1318L90.4299 93.6841C92.0814 97.7867 94.0164 101.012 96.2023 103.378C98.0536 105.383 99.427 107.903 100.359 110.924ZM84.5411 103.114C78.5461 109.885 77.1208 115.918 77.441 124.271C77.5007 125.826 77.4988 125.771 77.4988 126.25C77.4988 137.415 89.793 148.333 103.999 148.333C118.203 148.333 130.499 137.413 130.499 126.25C130.499 115.024 127.989 109.18 120.255 98.2692C120.016 97.9312 120.016 97.9312 119.775 97.5914C115.078 90.9658 112.279 86.3569 110.427 81.2024C107.402 84.8269 107.58 88.4319 109.377 95.3231C112.686 108.014 111.368 114.971 99.9587 123.206L93.453 127.902L92.9653 119.894C92.6537 114.777 91.4955 111.302 89.7126 109.372C87.9511 107.465 86.3607 105.232 84.9345 102.677C84.8015 102.823 84.6703 102.968 84.5411 103.114Z" fill="white"/>
</svg>
