<svg viewBox="0 0 231 221" fill="none" xmlns="http://www.w3.org/2000/svg">
<path d="M230.5 76.5C230.5 137.527 175.527 221 114.5 221C76.6694 221 23.9179 208.489 3.99993 179.5C-8.21337 161.724 15 111.697 15 88.5C15 27.4725 53.4725 0 114.5 0C175.527 0 230.5 15.4725 230.5 76.5Z" fill="#FFD643"/>
<path fill-rule="evenodd" clip-rule="evenodd" d="M69.375 106.875C66.9588 106.875 65 104.916 65 102.5C65 100.084 66.9588 98.125 69.375 98.125H71.1952C74.5708 90.3992 82.2799 85 91.25 85C99.2318 85 106.215 89.2749 110.035 95.66C112.182 94.4414 114.772 93.75 117.5 93.75C120.228 93.75 122.818 94.4414 124.965 95.66C128.785 89.2749 135.768 85 143.75 85C152.72 85 160.429 90.3992 163.805 98.125H165.625C168.041 98.125 170 100.084 170 102.5C170 104.916 168.041 106.875 165.625 106.875C165.625 118.956 155.831 128.75 143.75 128.75C131.669 128.75 121.875 118.956 121.875 106.875C121.875 106.137 121.912 105.407 121.983 104.688H121.875C121.875 103.798 120.145 102.5 117.5 102.5C114.855 102.5 113.125 103.798 113.125 104.688H113.017C113.088 105.407 113.125 106.137 113.125 106.875C113.125 118.956 103.331 128.75 91.25 128.75C79.1688 128.75 69.375 118.956 69.375 106.875ZM91.25 120C98.4987 120 104.375 114.124 104.375 106.875C104.375 99.6262 98.4987 93.75 91.25 93.75C84.0013 93.75 78.125 99.6262 78.125 106.875C78.125 114.124 84.0013 120 91.25 120ZM156.875 106.875C156.875 114.124 150.999 120 143.75 120C136.501 120 130.625 114.124 130.625 106.875C130.625 99.6262 136.501 93.75 143.75 93.75C150.999 93.75 156.875 99.6262 156.875 106.875Z" fill="white"/>
</svg>
