<svg width="1132" height="611" viewBox="0 0 1132 611" fill="none" xmlns="http://www.w3.org/2000/svg">
<path d="M381.472 107.617C295.742 106.281 263.25 166.432 204.034 223.266C180.679 240.399 133.873 299.022 133.492 396.45C133.015 518.235 278.381 574.37 367.296 575.382C456.211 576.393 583.495 486.473 726.863 516.653C870.231 546.833 1111.72 549.789 1118.67 400.82C1125.62 251.85 966.554 276.633 914.532 227.096C862.51 177.559 718.622 132.16 604.685 182.49C490.749 232.82 467.202 108.953 381.472 107.617Z" fill="#28A1B1"/>
<path d="M275.472 72.6169C189.742 71.2811 157.25 131.432 98.0343 188.266C74.6791 205.399 27.8732 264.022 27.4919 361.45C27.0153 483.235 172.381 539.37 261.296 540.382C350.211 541.393 477.495 451.473 620.863 481.653C764.231 511.833 1005.72 514.789 1012.67 365.82C1019.62 216.85 860.554 241.633 808.532 192.096C756.51 142.559 612.622 97.1598 498.685 147.49C384.749 197.82 361.202 73.9527 275.472 72.6169Z" fill="url(#paint0_linear)"/>
<defs>
<linearGradient id="paint0_linear" x1="0" y1="99.4851" x2="977.507" y2="6.46822e-07" gradientUnits="userSpaceOnUse">
<stop stop-color="#FFEDBC"/>
<stop offset="1" stop-color="#ED4264"/>
</linearGradient>
</defs>
</svg>
