<svg width="1440" height="389" viewBox="0 0 1440 389" fill="none" xmlns="http://www.w3.org/2000/svg">
<path d="M-147 238.955C-77.6911 228.402 -78.6318 155.976 18.4007 141.203C115.433 126.429 157.121 212.829 304.056 190.458C450.991 168.086 389.415 108.786 546.515 84.867C703.616 60.9479 743.631 166.01 872.083 146.453C1000.54 126.896 1130.41 17.2073 1227.44 2.43368C1324.47 -12.3399 1471.8 92.3135 1579.92 75.8515M-132.625 285.034C-63.3161 274.481 -64.2568 202.055 32.7757 187.281C129.808 172.508 171.496 258.908 318.431 236.536C465.366 214.165 403.79 154.865 560.89 130.946C717.991 107.027 758.006 212.089 886.458 192.532C1014.91 172.974 1144.78 63.2859 1241.81 48.5123C1338.85 33.7387 1486.17 138.392 1594.3 121.93M-132.625 337.248C-63.3161 326.695 -64.2568 254.269 32.7757 239.495C129.808 224.722 171.496 311.122 318.431 288.75C465.366 266.379 403.79 207.079 560.89 183.16C717.991 159.24 758.006 264.303 886.458 244.746C1014.91 225.188 1144.78 115.5 1241.81 100.726C1338.85 85.9526 1486.17 190.606 1594.3 174.144M-118.625 387.991C-49.3161 377.438 -50.2568 305.012 46.7757 290.238C143.808 275.465 185.496 361.865 332.431 339.493C479.366 317.122 417.79 257.822 574.89 233.903C731.991 209.983 772.006 315.046 900.458 295.489C1028.91 275.931 1158.78 166.243 1255.81 151.469C1352.85 136.696 1500.17 241.349 1608.3 224.887" stroke="#B9B9B9"/>
</svg>
